<?xml version="1.0" encoding="UTF-8"?>
<svg width="58px" height="54px" viewBox="0 0 58 54" version="1.1" xmlns="http://www.w3.org/2000/svg" xmlns:xlink="http://www.w3.org/1999/xlink">
    <!-- Generator: Sketch 40 (33762) - http://www.bohemiancoding.com/sketch -->
    <title>Group 2</title>
    <desc>Created with Sketch.</desc>
    <defs></defs>
    <g id="Page-37" stroke="none" stroke-width="1" fill="none" fill-rule="evenodd">
        <g id="Group-2" transform="translate(-2.000000, 0.000000)" fill="#000000">
            <g id="exercise" transform="translate(30.889648, 35.667969) rotate(-135.000000) translate(-30.889648, -35.667969) translate(-1.110352, 24.167969)">
                <g id="Capa_1">
                    <g id="XMLID_211_">
                        <path d="M48.7020522,0.182121739 L31.0390261,0.072626087 C30.2982957,0.0680347826 29.0095304,0.461356522 28.2970435,0.9888 L14.8033391,10.5833739 L1.84055652,16.2103652 C0.291895652,16.8826435 -0.418643478,18.6829913 0.253634783,20.2317913 C0.753808696,21.3840696 1.8784,22.0722087 3.05933913,22.0722087 C3.4656,22.0722087 3.87867826,21.9908174 4.27506087,21.818713 L17.5312696,16.0642783 C17.7264696,15.9795478 17.9120696,15.8746435 18.0854261,15.7513739 L25.7193739,10.3232 L40.1945043,11.9938783 C40.2665739,11.4536348 40.4784696,10.7570087 40.8168348,10.3297391 L46.3510261,3.3389913 L42.4582957,11.6292174 C42.1577739,12.2692174 42.1786435,13.0455652 42.5677913,13.6872348 C43.0736696,14.5211826 46.6368,20.394713 47.0867478,21.1364174 C47.7171478,22.174887 49.0640696,22.4872348 50.0818087,21.8701913 C50.0819478,21.8700522 50.0822261,21.8700522 50.0823652,21.869913 C51.0962087,21.2550957 51.4487652,19.9177739 50.8158609,18.8744348 C50.0897391,17.6774957 47.675687,13.698087 46.9033739,12.4249043 L50.4285217,4.91742609 L49.1076174,12.0221217 L49.5688348,12.7824696 C49.8832696,12.6674087 50.1782261,12.497113 50.4343652,12.2703304 C51.010087,11.7604174 51.3417739,11.0297043 51.3465043,10.2607304 L51.3921391,2.9056 C51.4013217,1.41078261 50.1968696,0.191443478 48.7020522,0.182121739 Z M48.5,21 C49.3284271,21 50,20.3284271 50,19.5 C50,18.6715729 49.3284271,18 48.5,18 C47.6715729,18 47,18.6715729 47,19.5 C47,20.3284271 47.6715729,21 48.5,21 Z" id="Combined-Shape"></path>
                        <ellipse id="XMLID_212_" cx="58.878887" cy="5.47241739" rx="5.11805217" ry="5.11805217"></ellipse>
                    </g>
                </g>
            </g>
            <rect id="Rectangle" transform="translate(38.338457, 10.299038) rotate(-300.000000) translate(-38.338457, -10.299038) " x="36.8384573" y="-7.70096189" width="3" height="36" rx="1.5"></rect>
            <rect id="Rectangle-Copy" transform="translate(53.500000, 18.000000) rotate(-360.000000) translate(-53.500000, -18.000000) " x="52" y="0" width="3" height="36" rx="1.5"></rect>
        </g>
    </g>
</svg>